<svg width="156" height="156" viewBox="0 0 156 156" fill="none" xmlns="http://www.w3.org/2000/svg">
<g clip-path="url(#clip0_48_118)">
<path d="M82.875 53.625C82.875 52.3321 82.3614 51.0921 81.4471 50.1779C80.5329 49.2636 79.2929 48.75 78 48.75C76.7071 48.75 75.4671 49.2636 74.5528 50.1779C73.6386 51.0921 73.125 52.3321 73.125 53.625V86.4045L59.1922 109.609C58.5264 110.719 58.3285 112.047 58.6421 113.302C58.9556 114.558 59.755 115.637 60.8644 116.303C61.9737 116.969 63.3021 117.167 64.5574 116.853C65.8126 116.539 66.8919 115.74 67.5577 114.631L82.1827 90.2557C82.636 89.4985 82.8753 88.6325 82.875 87.75V53.625Z" fill="white"/>
<path d="M63.375 0C62.0821 0 60.8421 0.513615 59.9279 1.42785C59.0136 2.34209 58.5 3.58207 58.5 4.875C58.5 6.16793 59.0136 7.40791 59.9279 8.32215C60.8421 9.23639 62.0821 9.75 63.375 9.75H68.25V20.1825C54.9732 22.1006 42.5559 27.8883 32.5492 36.8225C22.5425 45.7568 15.3902 57.4414 11.9856 70.4169C8.58102 83.3923 9.07517 97.0833 13.4063 109.78C17.7374 122.476 25.7136 133.614 36.3383 141.804L30.4688 147.673C29.5534 148.588 29.0386 149.828 29.0377 151.122C29.0368 152.415 29.5498 153.656 30.4639 154.572C31.378 155.487 32.6183 156.002 33.9119 156.003C35.2056 156.004 36.4466 155.491 37.362 154.577L44.6355 147.303C54.8244 153.022 66.3158 156.017 78 156C89.6842 156.017 101.176 153.022 111.365 147.303L118.638 154.577C119.553 155.491 120.794 156.004 122.088 156.003C123.382 156.002 124.622 155.487 125.536 154.572C126.45 153.656 126.963 152.415 126.962 151.122C126.961 149.828 126.447 148.588 125.531 147.673L119.672 141.804C130.296 133.614 138.272 122.474 142.603 109.777C146.934 97.0804 147.427 83.3888 144.021 70.4131C140.616 57.4374 133.462 45.7529 123.454 36.8193C113.446 27.8857 101.028 22.0991 87.75 20.1825V9.75H92.625C93.9179 9.75 95.1579 9.23639 96.0722 8.32215C96.9864 7.40791 97.5 6.16793 97.5 4.875C97.5 3.58207 96.9864 2.34209 96.0722 1.42785C95.1579 0.513615 93.9179 0 92.625 0L63.375 0ZM73.4955 29.4255C76.494 29.1939 79.506 29.1939 82.5045 29.4255C97.5845 30.5901 111.627 37.5501 121.687 48.8451C131.746 60.14 137.039 74.8921 136.457 90.0057C135.874 105.119 129.46 119.42 118.561 129.907C107.662 140.394 93.1249 146.252 78 146.252C62.8751 146.252 48.338 140.394 37.439 129.907C26.5399 119.42 20.1262 105.119 19.5434 90.0057C18.9607 74.8921 24.2543 60.14 34.3134 48.8451C44.3726 37.5501 58.4155 30.5901 73.4955 29.4255ZM2.46955e-08 34.125C2.46955e-08 41.4668 3.24675 48.0578 8.385 52.5233C15.9123 37.7048 27.9548 25.6623 42.7733 18.135C39.5156 14.3864 35.1906 11.7224 30.3772 10.4995C25.5638 9.27653 20.4917 9.5531 15.8398 11.2921C11.1879 13.0311 7.17816 16.1497 4.34737 20.2302C1.51658 24.3108 -0.000223473 29.1587 2.46955e-08 34.125ZM131.625 9.75C124.283 9.75 117.692 12.9967 113.227 18.135C128.045 25.6623 140.088 37.7048 147.615 52.5233C151.364 49.2656 154.028 44.9406 155.251 40.1272C156.473 35.3138 156.197 30.2417 154.458 25.5898C152.719 20.9379 149.6 16.9282 145.52 14.0974C141.439 11.2666 136.591 9.74978 131.625 9.75Z" fill="white"/>
</g>
<defs>
<clipPath id="clip0_48_118">
<rect width="156" height="156" fill="white"/>
</clipPath>
</defs>
</svg>
