<?xml version="1.0" encoding="UTF-8"?>
<svg id="Camada_2" data-name="Camada 2" xmlns="http://www.w3.org/2000/svg" viewBox="0 0 306.89 178.82">
  <defs>
    <style>
      .cls-1 {
        fill: #fff;
        stroke-width: 4.03px;
      }

      .cls-1, .cls-2, .cls-3 {
        stroke: #bf8c36;
        stroke-miterlimit: 10;
      }

      .cls-2 {
        stroke-width: 3.22px;
      }

      .cls-2, .cls-3 {
        fill: none;
      }

      .cls-4 {
        fill: #bf8c36;
      }

      .cls-3 {
        stroke-width: 1.58px;
      }
    </style>
  </defs>
  <g id="Camada_2-2" data-name="Camada 2">
    <g>
      <path d="M84.69,49.11l3.83-3.46-1.89,11.83h-4.54l.38-11.83h36.83l.35,11.83h-4.52l-1.89-11.83,3.81,3.46h-32.36ZM101.88,84.73l9.45.97v3.05h-20.9v-3.05l9.36-.97h2.09ZM96.66,65.79c0-6.69,0-13.45-.19-20.14h8.81c-.19,6.56-.19,13.32-.19,20.14v2.8c0,6.72,0,13.47.19,20.17h-8.81c.19-6.56.19-13.32.19-20.14v-2.82Z"/>
      <path d="M125.26,75.11v-3.44c0-3.57-.06-5.23-.19-7.83l-4.58-.58v-2.42l10.86-4.11,1.05.67.68,8.05v9.66c0,4.03.06,10.72.19,13.64h-8.21c.13-2.92.19-9.62.19-13.64ZM121,86.1l6.67-1.3h4.11l6.67,1.3v2.66h-17.45v-2.66ZM129.36,66.43h4.3l-1.24,1.12c1.6-7.02,5.85-10.83,9.71-10.83,2.36,0,4.48,1.24,5.14,3.52-.07,3.22-1.6,5.03-4.2,5.03-1.73,0-3.11-.78-4.47-2.3l-1.83-2,2.9.16c-3.17,1.89-5.51,5.23-6.67,9.66l-3.64-.24v-4.14Z"/>
      <path d="M153.78,88.75c.13-2.92.2-9.62.2-13.64v-3.08c0-3.57-.07-5.59-.2-8.19l-4.66-.58v-2.42l11.74-4.11,1.05.67-.19,9.1v8.6c0,4.03.06,10.72.19,13.64h-8.13ZM165.74,86.1v2.66h-16.11v-2.66l6.57-1.3h3.14l6.4,1.3ZM152.84,46.03c0-2.75,2.17-4.64,4.91-4.64s4.91,1.89,4.91,4.64-2.17,4.64-4.91,4.64-4.91-1.93-4.91-4.64Z"/>
      <path d="M193.87,94.71c0-2.4-1.53-4.42-5.66-4.42h-7.24c-1.99,0-3.8-.16-5.13-.6v-.31c-3.31-.88-4.84-2.76-4.84-5.35,0-2.85,1.95-5.58,6.17-9.08l1.57,1.02c-1.45,1.67-2.1,2.91-2.1,4.69,0,1.63.86,2.69,3.77,2.69h8.08c8.45,0,11.84,3.46,11.84,8.91,0,6.11-5.97,11.65-17.5,11.65-10.07,0-13.69-3.44-13.69-7.76,0-3.18,2.18-5.66,7.91-7.9l.63.49c-1.98,2.25-2.76,3.74-2.76,6.04,0,4.07,3.03,5.74,8.52,5.74,6.84,0,10.41-2.56,10.41-5.81ZM183.27,56.73c7.96,0,12.59,3.94,12.59,10.58s-4.71,10.51-12.63,10.51-12.63-3.96-12.63-10.51,4.71-10.58,12.67-10.58ZM177.79,67.31c0,4.67,1.81,7.68,5.32,7.68s5.61-3.13,5.61-7.85-1.93-7.58-5.41-7.58-5.52,3.07-5.52,7.74ZM199.81,56.66l1,.65v4.53h-9.43v-1.95l8.43-3.23Z"/>
      <path d="M203.41,73.2c0-10.38,7.27-16.47,15.67-16.47s15.67,6.02,15.67,16.47-6.95,16.47-15.67,16.47-15.67-6.09-15.67-16.47ZM226.28,73.27c0-8.97-2.57-13.38-7.2-13.38s-7.2,4.41-7.2,13.38,2.49,13.24,7.2,13.24,7.2-4.24,7.2-13.24Z"/>
      <path d="M53.19,125.92l3.22-2.91-1.59,9.95h-3.82l.32-9.95h30.99l.3,9.95h-3.8l-1.59-9.95,3.2,2.91h-27.23ZM67.65,155.89l7.96.82v2.57h-17.59v-2.57l7.87-.82h1.76ZM63.26,139.96c0-5.63,0-11.32-.16-16.95h7.42c-.16,5.52-.16,11.21-.16,16.95v2.35c0,5.65,0,11.34.16,16.97h-7.42c.16-5.52.16-11.21.16-16.95v-2.37Z"/>
      <path d="M87.33,147.8v-2.89c0-3.01-.05-4.4-.16-6.59l-3.85-.49v-2.03l9.14-3.46.88.57.58,6.77v8.12c0,3.39.05,9.02.16,11.48h-6.91c.11-2.46.16-8.09.16-11.48ZM83.75,157.04l5.61-1.09h3.46l5.61,1.09v2.23h-14.69v-2.23ZM90.78,140.5h3.62l-1.05.94c1.35-5.91,4.92-9.11,8.17-9.11,1.99,0,3.77,1.05,4.32,2.96-.06,2.71-1.35,4.23-3.53,4.23-1.46,0-2.62-.65-3.76-1.93l-1.54-1.68,2.44.14c-2.67,1.59-4.64,4.4-5.61,8.13l-3.06-.2v-3.48Z"/>
      <path d="M117.01,144.49c2.28-.74,5.94-1.74,8.59-2.3v2.13c-2.52.57-5.61,1.49-7.23,2.19-3.68,1.47-4.77,3.43-4.77,5.52,0,2.82,1.67,4.03,3.85,4.03,1.47,0,2.45-.57,5.03-2.43l1.66-1.24.67.97-1.95,2.05c-2.96,3.04-4.74,4.65-8.39,4.65-4.11,0-7.25-2.4-7.25-6.91,0-3.48,1.9-6.08,9.79-8.64ZM122.22,154.53v-13.09c0-5.1-1.23-6.47-4.78-6.47-1.3,0-2.82.16-5.02.88l2.99-1.92-.9,4.24c-.31,2.63-1.61,3.8-3.41,3.8s-2.81-.88-3.08-2.47c.66-4.36,4.88-7.19,11.57-7.19,6.33,0,9.09,2.77,9.09,9.88v11.93c0,1.76.6,2.45,1.62,2.45.75,0,1.27-.39,1.89-1.2l1.27,1.08c-1.31,2.54-3.03,3.47-5.63,3.47-3.37,0-5.38-2.07-5.62-5.42Z"/>
      <path d="M149.28,156.16c2.71,0,4.58-1.58,6.69-4.53l.57,1.18c-2.4,4.8-5.35,7.24-9.92,7.24-6.43,0-11.03-5.2-11.03-13.63s5.4-14.09,11.85-14.09c3.94,0,6.42,1.94,9.1,6.5l-.55,1.24c-2.65-2.82-4.52-3.92-6.67-3.92-3.7,0-6.73,3.18-6.73,10.15s2.8,9.85,6.69,9.85ZM164.25,157.04v2.23l-9.55.59-.63-5.22v-17.1l.24-.65v-12.57l-4.26-.55v-2.11l9.99-2.46.83.5-.22,7.7v31.88l-2.32-3.39,5.91,1.16Z"/>
      <path d="M170.54,159.28c.11-2.46.16-8.09.16-11.48v-2.59c0-3.01-.05-4.7-.16-6.89l-3.92-.49v-2.03l9.88-3.46.88.57-.16,7.66v7.24c0,3.39.05,9.02.16,11.48h-6.84ZM180.61,157.04v2.23h-13.56v-2.23l5.53-1.09h2.64l5.39,1.09ZM169.75,123.33c0-2.32,1.83-3.91,4.13-3.91s4.13,1.59,4.13,3.91-1.83,3.91-4.13,3.91-4.13-1.62-4.13-3.91Z"/>
      <path d="M190.87,145.5c0,6.59,3.34,10.2,8.2,10.2,2.89,0,5.26-1.37,6.89-3.64l1.61,1.18c-1.8,4.5-5.52,6.81-10.68,6.81-7.47,0-12.91-5.01-12.91-13.79s6.31-13.92,13.66-13.92c5.33,0,9.37,3.31,9.92,7.51-.43,1.67-1.41,2.44-3.08,2.44-1.98,0-3.24-1.21-3.56-3.85l-.93-4.35,3.26,2.14c-1.78-.88-3.42-1.27-5.05-1.27-3.93,0-7.34,3.33-7.34,10.53ZM195.64,159.07h2.41l-.53,4.29-1.39-1.29c4.23.3,6.76,1.99,6.76,4.75s-2.28,4.61-6.73,4.61c-1.65,0-2.86-.27-3.83-.61l.48-2.08c.96.21,1.78.3,2.76.3,2.05,0,3.01-.9,3.01-2.29,0-1.65-1.22-2.42-3.7-2.7l.75-4.99Z"/>
      <path d="M221.06,144.49c2.28-.74,5.94-1.74,8.59-2.3v2.13c-2.52.57-5.61,1.49-7.23,2.19-3.68,1.47-4.77,3.43-4.77,5.52,0,2.82,1.67,4.03,3.85,4.03,1.47,0,2.45-.57,5.03-2.43l1.66-1.24.67.97-1.95,2.05c-2.96,3.04-4.74,4.65-8.39,4.65-4.11,0-7.25-2.4-7.25-6.91,0-3.48,1.9-6.08,9.79-8.64ZM226.27,154.53v-13.09c0-5.1-1.23-6.47-4.78-6.47-1.3,0-2.82.16-5.02.88l2.99-1.92-.9,4.24c-.31,2.63-1.61,3.8-3.41,3.8s-2.81-.88-3.08-2.47c.66-4.36,4.88-7.19,11.58-7.19,6.33,0,9.09,2.77,9.09,9.88v11.93c0,1.76.6,2.45,1.62,2.45.75,0,1.27-.39,1.89-1.2l1.27,1.08c-1.31,2.54-3.03,3.47-5.63,3.47-3.37,0-5.38-2.07-5.62-5.42ZM219.33,119.88c1.72,0,2.88.79,4.01,1.66,1.16.95,2.26,2.2,3.67,2.2,1.6,0,2.66-1.45,3.39-3.83l1.84.71c-.64,4.51-2.52,7.32-5.58,7.32-1.68,0-2.99-.79-4.09-1.66-1.16-.95-2.24-2.2-3.67-2.2-1.6,0-2.64,1.45-3.37,3.81l-1.84-.71c.6-4.53,2.55-7.3,5.64-7.3Z"/>
      <path d="M239.64,146.19c0-8.73,6.12-13.86,13.19-13.86s13.19,5.06,13.19,13.86-5.85,13.86-13.19,13.86-13.19-5.13-13.19-13.86ZM258.89,146.25c0-7.55-2.17-11.26-6.06-11.26s-6.06,3.71-6.06,11.26,2.1,11.14,6.06,11.14,6.06-3.57,6.06-11.14Z"/>
    </g>
    <g>
      <g>
        <g>
          <path class="cls-3" d="M294.8,10.66c5.25,6.33,3.09,14.34-2.25,19.86-.26.27-1.25,1.59-1.63,1.2-2.89-7.35-2.03-15.41,3.88-21.06ZM285.12,1.2l3.34,3.43c.29.3,1.36,3.14,1.53,3.75,1.23,4.28-.32,9.63-3.26,12.91-5.8-5.74-6.71-13.57-1.61-20.09ZM292.5,44.7c-3.95-7.74,2.23-15.8,7.74-20.9,1.84,3.33,2.21,7.07.79,10.63-.3.74-1.84,3.76-2.26,4.17l-6.26,6.1ZM302.62,38.06c4.69,7.7-2.98,15.8-8.66,20.42-4.67-7.66,1.93-16.53,8.66-20.42ZM277.93,16.05c5.75,2.32,11.54,9.76,10.65,16.12-.06.41.14.75-.37,1.04-5.72-3.19-13.48-9.99-10.29-17.16ZM305.01,51.4c.88.16.84,3.8.76,4.55-.64,6.07-6.25,11.46-11.05,14.68-4.93-7.32,3.79-16.32,10.28-19.23ZM277.77,27.72c4.74,2.8,11.9,7.82,11.09,13.96-6.05.13-15.74-7.64-11.09-13.96ZM288.03,45.46c1.56,1.82,3.46,5.04,3.33,7.51-.09,1.86-.42,2.4-2.15,1.84-5.69-1.85-14.98-8.54-11.41-15.49,3.51.42,7.93,3.48,10.22,6.14ZM294.36,79.02c.25-2.97,1.76-6.36,3.59-8.7.91-1.17,6.66-6.89,7.7-5.96,1.53,5.77-1.92,13.57-6.97,16.58-3.01,1.79-4.66,2.12-4.33-1.91ZM289.97,58.78c1.75,2.32,2.74,5.34,1.82,8.2-.64.85-3.66-.84-4.34-1.24-3.8-2.23-8.33-6.56-9.12-11.08-.62-3.55.76-3.72,3.69-2.52,2.94,1.21,6.04,4.11,7.95,6.64ZM296.29,94.39c-3.86-6.25,3.99-13.24,8.85-16.39,3.25,6.38-2.31,14.79-8.85,16.39ZM260.9,34.03c4.47,3.5,4.22,8.24,1.24,12.61-2.87-3.39-3.83-8.77-1.24-12.61ZM267.34,41.11c2.88,3.51,3,6.03,1.72,10.17-.25.8-1.88,5.15-2.38,5.22-3.16-4.77-4.7-11.48.67-15.39ZM257.77,41.22c-3.84-2.27-8.19-7.7-5.8-12.31,4.71,1.62,7.89,7.57,5.8,12.31ZM272.14,48.88c4.02,4.37,3.22,11.11-.89,15.15-3.71-4.49-2.85-10.92.89-15.15ZM280.59,63.7c4.41,1.61,8.62,4.92,10.88,9.1.97,1.8,1.94,4.78.49,6.55-1.11.89-5.09-1.8-6.05-2.64-3.16-2.76-8-8.81-5.32-13.01ZM304.76,89.89c3.19,6.35-1.46,15.31-8.05,17.23-3.93-6.37,3.27-13.54,8.05-17.23ZM258.67,44.15c2.36,3.12,3.39,7.07-2.04,4.77-2.52-1.07-4.9-3.49-5.93-6.04-.52-1.3-1.16-2.84.68-3.05,2.44-.28,5.9,2.48,7.29,4.32ZM266.85,59.07c-.29,1.43-5.24-.01-6.15-.44-3.65-1.68-7.56-5.3-7.11-9.65,5.58,1.02,11.2,4.62,13.26,10.08ZM291.29,82.84c1.99,2.48,3.77,6.23,1.66,9.15-4.6-.02-14.13-10.72-11.17-14.65.56-.88,3.08.42,3.87.86,2,1.12,4.21,2.86,5.64,4.65ZM281.99,86.73l.89,2.92M279.42,82.33c-3.19-3.02-1.97-8.93.93-11.96M270.3,66c.31.45,1.49,3.48,1.23,3.74-5.25-.71-12.38-3.47-12.9-9.51,4.44-1.01,9.23,2.22,11.68,5.76ZM274.61,75.62c.77,1.12,1.08,2.87,1.22,4.21-5.04-1.37-13.02-4.49-12.45-10.88,4.22.52,8.77,3.13,11.23,6.67ZM284.23,89.17c5.41,2.91,13.42,8.36,9.72,15.37-4.43-.96-8.11-5.53-9.55-9.65-.29-.84-1.5-5.49-.17-5.72ZM278.68,84.54c.9,1.24,1.27,2.69,1.23,4.21-4.67-1.2-10.59-4.09-11.07-9.47,3.06-.45,8.1,2.88,9.84,5.26ZM273.97,88.1c3.74,1.65,9.67,3.49,9.06,8.57-3.7,1.2-7.62-2.45-8.99-5.66-.17-.4-.74-2.9-.07-2.91Z"/>
          <path class="cls-2" d="M279.13,56.35c-4.48,4.54-5.76,13.13-3.57,17.3"/>
        </g>
        <path class="cls-4" d="M269.27,178.79c17.32-21.95,22.46-48.63,23.33-75.96.95-27-2.17-54.15-5.38-80.93,1.85,9.59,3.64,20.39,4.9,30.14,2.16,16.7,3.39,34.02,2.86,50.87-.78,26.97-6.98,55.45-25.71,75.87h0Z"/>
        <path class="cls-4" d="M291.34,119.82c-7.2-26.2-18.6-51.16-32.94-74.2-.96-1.54-1.91-3.09-2.85-4.66,1.14,1.42,2.27,2.84,3.39,4.28,16.15,21.2,28.5,48.12,32.39,74.57h0Z"/>
        <polyline class="cls-1" points="280.57 83.93 281.22 79.11 280.88 84.98 280.71 86.42 280.83 87.55 279.62 82.95"/>
        <line class="cls-1" x1="282.11" y1="83.78" x2="282.54" y2="88.53"/>
      </g>
      <g>
        <g>
          <path class="cls-3" d="M12.09,10.66c-5.25,6.33-3.09,14.34,2.25,19.86.26.27,1.25,1.59,1.63,1.2,2.89-7.35,2.03-15.41-3.88-21.06ZM21.77,1.2l-3.34,3.43c-.29.3-1.36,3.14-1.53,3.75-1.23,4.28.32,9.63,3.26,12.91,5.8-5.74,6.71-13.57,1.61-20.09ZM14.39,44.7c3.95-7.74-2.23-15.8-7.74-20.9-1.84,3.33-2.21,7.07-.79,10.63.3.74,1.84,3.76,2.26,4.17l6.26,6.1ZM4.27,38.06c-4.69,7.7,2.98,15.8,8.66,20.42,4.67-7.66-1.93-16.53-8.66-20.42ZM28.96,16.05c-5.75,2.32-11.54,9.76-10.65,16.12.06.41-.14.75.37,1.04,5.72-3.19,13.48-9.99,10.29-17.16ZM1.87,51.4c-.88.16-.84,3.8-.76,4.55.64,6.07,6.25,11.46,11.05,14.68,4.93-7.32-3.79-16.32-10.28-19.23ZM29.12,27.72c-4.74,2.8-11.9,7.82-11.09,13.96,6.05.13,15.74-7.64,11.09-13.96ZM18.86,45.46c-1.56,1.82-3.46,5.04-3.33,7.51.09,1.86.42,2.4,2.15,1.84,5.69-1.85,14.98-8.54,11.41-15.49-3.51.42-7.93,3.48-10.22,6.14ZM12.53,79.02c-.25-2.97-1.76-6.36-3.59-8.7-.91-1.17-6.66-6.89-7.7-5.96-1.53,5.77,1.92,13.57,6.97,16.58,3.01,1.79,4.66,2.12,4.33-1.91ZM16.92,58.78c-1.75,2.32-2.74,5.34-1.82,8.2.64.85,3.66-.84,4.34-1.24,3.8-2.23,8.33-6.56,9.12-11.08.62-3.55-.76-3.72-3.69-2.52s-6.04,4.11-7.95,6.64ZM10.6,94.39c3.86-6.25-3.99-13.24-8.85-16.39-3.25,6.38,2.31,14.79,8.85,16.39ZM45.99,34.03c-4.47,3.5-4.22,8.24-1.24,12.61,2.87-3.39,3.83-8.77,1.24-12.61ZM39.55,41.11c-2.88,3.51-3,6.03-1.72,10.17.25.8,1.88,5.15,2.38,5.22,3.16-4.77,4.7-11.48-.67-15.39ZM49.11,41.22c3.84-2.27,8.19-7.7,5.8-12.31-4.71,1.62-7.89,7.57-5.8,12.31ZM34.75,48.88c-4.02,4.37-3.22,11.11.89,15.15,3.71-4.49,2.85-10.92-.89-15.15ZM26.3,63.7c-4.41,1.61-8.62,4.92-10.88,9.1-.97,1.8-1.94,4.78-.49,6.55,1.11.89,5.09-1.8,6.05-2.64,3.16-2.76,8-8.81,5.32-13.01ZM2.13,89.89c-3.19,6.35,1.46,15.31,8.05,17.23,3.93-6.37-3.27-13.54-8.05-17.23ZM48.22,44.15c-2.36,3.12-3.39,7.07,2.04,4.77,2.52-1.07,4.9-3.49,5.93-6.04.52-1.3,1.16-2.84-.68-3.05-2.44-.28-5.9,2.48-7.29,4.32ZM40.04,59.07c.29,1.43,5.24-.01,6.15-.44,3.65-1.68,7.56-5.3,7.11-9.65-5.58,1.02-11.2,4.62-13.26,10.08ZM15.6,82.84c-1.99,2.48-3.77,6.23-1.66,9.15,4.6-.02,14.13-10.72,11.17-14.65-.56-.88-3.08.42-3.87.86-2,1.12-4.21,2.86-5.64,4.65ZM24.9,86.73l-.89,2.92M27.47,82.33c3.19-3.02,1.97-8.93-.93-11.96M36.59,66c-.31.45-1.49,3.48-1.23,3.74,5.25-.71,12.38-3.47,12.9-9.51-4.44-1.01-9.23,2.22-11.68,5.76ZM32.28,75.62c-.77,1.12-1.08,2.87-1.22,4.21,5.04-1.37,13.02-4.49,12.45-10.88-4.22.52-8.77,3.13-11.23,6.67ZM22.66,89.17c-5.41,2.91-13.42,8.36-9.72,15.37,4.43-.96,8.11-5.53,9.55-9.65.29-.84,1.5-5.49.17-5.72ZM28.21,84.54c-.9,1.24-1.27,2.69-1.23,4.21,4.67-1.2,10.59-4.09,11.07-9.47-3.06-.45-8.1,2.88-9.84,5.26ZM32.92,88.1c-3.74,1.65-9.67,3.49-9.06,8.57,3.7,1.2,7.62-2.45,8.99-5.66.17-.4.74-2.9.07-2.91Z"/>
          <path class="cls-2" d="M27.76,56.35c4.48,4.54,5.76,13.13,3.57,17.3"/>
        </g>
        <path class="cls-4" d="M40.04,178.82c-18.89-21.64-25.88-47.47-27.43-75.65-1.36-27.16,1.98-54.64,7.06-81.28-3.21,26.84-6.17,54.11-4.69,81.15.78,15.08,3.15,30.39,8.14,44.68,3.95,11.19,9.82,21.57,16.92,31.1h0Z"/>
        <path class="cls-4" d="M15.55,119.82c3.89-26.45,16.24-53.37,32.39-74.57,1.12-1.44,2.25-2.87,3.39-4.28-.94,1.56-1.89,3.12-2.85,4.66-14.34,23.03-25.74,48-32.94,74.2h0Z"/>
        <polyline class="cls-1" points="26.32 83.93 25.67 79.11 26.01 84.98 26.18 86.42 26.06 87.55 27.27 82.95"/>
        <line class="cls-1" x1="24.78" y1="83.78" x2="24.35" y2="88.53"/>
      </g>
    </g>
    <path class="cls-4" d="M152.95,110.21c0,2.07,1.53,3.77,3.88,3.77,1.65,0,3.12-.66,3.98-1.76l.78.71c-1.01,1.54-2.79,3.03-6.01,3.03-3.49,0-5.6-2.18-5.6-4.82,0-2.46,1.55-4.33,4.96-5.69l.48.7c-1.89,1.07-2.47,2.62-2.47,4.06ZM153.93,105.68c-1.28-1.55-1.74-2.9-1.74-4.28,0-2.49,1.93-4.04,4.72-4.04s4.37,1.41,4.37,3.46c0,1.94-1.39,3.28-4.51,4.72l-.56-.66c1.72-1.38,2.74-2.76,2.74-4.22s-.84-2.27-2.07-2.27-2.14.97-2.14,2.28c0,.87.22,1.69,1.08,2.87.8,1.03,1.53,1.83,3.55,4.04,2.3,2.51,3.69,3.94,6.25,6.69l-1.66-.8,3.71.64-.17,1.51c-1.02.24-1.58.33-2.33.33-1.49,0-2.48-.33-3.53-1.33-1.65-1.67-2.92-3.22-4.16-4.65-1.71-2.07-2.58-3.16-3.56-4.29ZM164.26,104.9h1.67c-.78,3.05-1.86,5.13-3.6,7.45l-.89-.61c1.47-2.16,2.28-4.07,2.82-6.84ZM164.65,105.65l-2.61-.42v-1.14h5.69v1.14l-2.52.42h-.56Z"/>
  </g>
</svg>