<svg width="160" height="160" viewBox="0 0 160 160" fill="none" xmlns="http://www.w3.org/2000/svg">
<path fill-rule="evenodd" clip-rule="evenodd" d="M105 35C105 28.3696 102.366 22.0107 97.6777 17.3223C92.9893 12.6339 86.6304 10 80 10C73.3696 10 67.0107 12.6339 62.3223 17.3223C57.6339 22.0107 55 28.3696 55 35V40H105V35ZM115 35V40H150V140C150 145.304 147.893 150.391 144.142 154.142C140.391 157.893 135.304 160 130 160H30C24.6957 160 19.6086 157.893 15.8579 154.142C12.1071 150.391 10 145.304 10 140V40H45V35C45 25.7174 48.6875 16.815 55.2513 10.2513C61.815 3.68749 70.7174 0 80 0C89.2826 0 98.185 3.68749 104.749 10.2513C111.313 16.815 115 25.7174 115 35ZM140 140V50H20V140C20 142.652 21.0536 145.196 22.9289 147.071C24.8043 148.946 27.3478 150 30 150H130C132.652 150 135.196 148.946 137.071 147.071C138.946 145.196 140 142.652 140 140ZM80 79.93C96.64 62.82 138.25 92.76 80 131.25C21.75 92.75 63.36 62.82 80 79.93Z" fill="white"/>
</svg>
