<svg width="81" height="71" viewBox="0 0 81 71" fill="none" xmlns="http://www.w3.org/2000/svg">
<path d="M10.125 0C7.43968 0 4.86435 1.07113 2.96554 2.97775C1.06674 4.88437 0 7.4703 0 10.1667L0 50.8842C0.0133828 53.5717 1.08603 56.1446 2.98338 58.0402C4.88074 59.9359 7.44843 61 10.125 61H37.9688C38.6401 61 39.2839 60.7322 39.7586 60.2556C40.2333 59.7789 40.5 59.1324 40.5 58.4583C40.5 57.7842 40.2333 57.1378 39.7586 56.6611C39.2839 56.1844 38.6401 55.9167 37.9688 55.9167H10.125C9.01063 55.9168 7.92734 55.5477 7.04315 54.8667C6.15895 54.1856 5.52325 53.2307 5.23463 52.1499L33.7871 34.5057L40.5 38.5469L75.9375 17.1969V33.0417C75.9375 33.7158 76.2042 34.3622 76.6789 34.8389C77.1536 35.3156 77.7974 35.5833 78.4688 35.5833C79.1401 35.5833 79.7839 35.3156 80.2586 34.8389C80.7333 34.3622 81 33.7158 81 33.0417V10.1667C81 7.4703 79.9333 4.88437 78.0345 2.97775C76.1357 1.07113 73.5603 0 70.875 0H10.125ZM28.8968 31.5573L5.0625 46.2837V17.1969L28.8968 31.5573ZM5.0625 11.2698V10.1667C5.0625 8.81848 5.59587 7.52552 6.54527 6.57221C7.49467 5.6189 8.78234 5.08333 10.125 5.08333H70.875C72.2177 5.08333 73.5053 5.6189 74.4547 6.57221C75.4041 7.52552 75.9375 8.81848 75.9375 10.1667V11.2698L40.5 32.6198L5.0625 11.2698Z" fill="white"/>
<path d="M72.1045 62.345C77.1294 62.345 80 58.06 80 52.22V51.17C80 43.15 74.0597 36 63.5124 36H63.3383C53.0647 36 46 42.8 46 53.16V54.23C46 65.1 53.1542 71 62.7065 71H62.9254C65.8806 71 67.9901 70.63 69.0796 70.125V66.475C67.8607 67.025 65.7313 67.375 63.209 67.375H62.9901C56.3532 67.375 50.199 63.435 50.199 54.1V53.315C50.199 45.03 55.4627 39.695 63.3333 39.695H63.5323C71.1692 39.695 75.8906 44.945 75.8906 51.325V51.915C75.8906 56.79 74.2786 58.865 72.7114 58.865C71.5572 58.865 70.6716 58.125 70.6716 56.765V45.815H66.1642V48.66H66.0149C65.597 47.17 64.1841 45.51 61.2687 45.51C57.398 45.51 55.005 48.285 55.005 52.51V55.15C55.005 59.61 57.4428 62.32 61.2736 62.32C63.6169 62.32 65.7313 61.185 66.3184 59.105H66.5323C67.1194 61.205 69.602 62.345 72.1045 62.345ZM59.9005 54.405V53.27C59.9005 50.54 61.0299 49.315 62.7512 49.315C64.2289 49.315 65.597 50.275 65.597 52.855V54.69C65.597 57.555 64.3383 58.41 62.791 58.41C61.0299 58.41 59.9005 57.335 59.9005 54.41V54.405Z" fill="white"/>
</svg>
