<svg width="81" height="78" viewBox="0 0 81 78" fill="none" xmlns="http://www.w3.org/2000/svg">
<path d="M40.5 16.9394C40.5 16.2976 40.2333 15.6821 39.7586 15.2283C39.2839 14.7745 38.6401 14.5195 37.9688 14.5195C37.2974 14.5195 36.6536 14.7745 36.1789 15.2283C35.7042 15.6821 35.4375 16.2976 35.4375 16.9394V43.5584C35.4376 43.985 35.5557 44.4039 35.7798 44.7728C36.0038 45.1416 36.3258 45.4474 36.7132 45.6589L54.432 55.3386C55.0135 55.639 55.6948 55.7101 56.3304 55.5366C56.9659 55.3631 57.5053 54.9589 57.8332 54.4103C58.1612 53.8616 58.2516 53.2122 58.0853 52.6006C57.9189 51.9891 57.509 51.464 56.943 51.1376L40.5 42.1549V16.9394Z" fill="white"/>
<path d="M40.5 77.4371C51.2413 77.4371 61.5426 73.3578 69.1378 66.0967C76.733 58.8355 81 48.9873 81 38.7185C81 28.4497 76.733 18.6015 69.1378 11.3404C61.5426 4.07926 51.2413 0 40.5 0C29.7587 0 19.4574 4.07926 11.8622 11.3404C4.26695 18.6015 0 28.4497 0 38.7185C0 48.9873 4.26695 58.8355 11.8622 66.0967C19.4574 73.3578 29.7587 77.4371 40.5 77.4371ZM75.9375 38.7185C75.9375 47.7037 72.2039 56.3209 65.5581 62.6744C58.9123 69.0279 49.8986 72.5973 40.5 72.5973C31.1014 72.5973 22.0877 69.0279 15.4419 62.6744C8.79608 56.3209 5.0625 47.7037 5.0625 38.7185C5.0625 29.7333 8.79608 21.1162 15.4419 14.7627C22.0877 8.40917 31.1014 4.83982 40.5 4.83982C49.8986 4.83982 58.9123 8.40917 65.5581 14.7627C72.2039 21.1162 75.9375 29.7333 75.9375 38.7185Z" fill="white"/>
</svg>
