<svg width="81" height="80" viewBox="0 0 81 80" fill="none" xmlns="http://www.w3.org/2000/svg">
<g clip-path="url(#clip0_51_181)">
<path d="M40.5 0C29.5093 0 28.1273 0.05 23.8089 0.24C19.4906 0.44 16.5493 1.11 13.9725 2.1C11.2683 3.10163 8.81959 4.67699 6.79894 6.715C4.73545 8.71071 3.1404 11.1292 2.12625 13.8C1.12387 16.34 0.440437 19.25 0.243 23.5C0.050625 27.775 0 29.135 0 40.005C0 50.865 0.050625 52.225 0.243 56.49C0.4455 60.75 1.12387 63.655 2.12625 66.2C3.16406 68.83 4.54613 71.06 6.79894 73.285C9.04669 75.51 11.3046 76.88 13.9674 77.9C16.5493 78.89 19.4856 79.565 23.7988 79.76C28.1222 79.95 29.4992 80 40.5 80C51.5008 80 52.8728 79.95 57.1961 79.76C61.5043 79.56 64.4557 78.89 67.0326 77.9C69.7349 76.8977 72.1819 75.3224 74.2011 73.285C76.4539 71.06 77.8359 68.83 78.8737 66.2C79.8711 63.655 80.5545 60.75 80.757 56.49C80.9494 52.225 81 50.865 81 40C81 29.135 80.9494 27.775 80.757 23.505C80.5545 19.25 79.8711 16.34 78.8737 13.8C77.8596 11.1292 76.2645 8.71071 74.2011 6.715C72.1804 4.67699 69.7317 3.10163 67.0275 2.1C64.4456 1.11 61.4992 0.435 57.1911 0.24C52.8677 0.05 51.4958 0 40.4899 0H40.5ZM36.8702 7.21H40.5051C51.3186 7.21 52.5994 7.245 56.8671 7.44C60.8158 7.615 62.9623 8.27 64.3899 8.815C66.2783 9.54 67.6299 10.41 69.0474 11.81C70.4649 13.21 71.3408 14.54 72.0748 16.41C72.6317 17.815 73.2898 19.935 73.467 23.835C73.6644 28.05 73.7049 29.315 73.7049 39.99C73.7049 50.665 73.6644 51.935 73.467 56.15C73.2898 60.05 72.6266 62.165 72.0748 63.575C71.4209 65.3095 70.3852 66.879 69.0424 68.17C67.6249 69.57 66.2783 70.435 64.3849 71.16C62.9674 71.71 60.8209 72.36 56.8671 72.54C52.5994 72.73 51.3186 72.775 40.5051 72.775C29.6916 72.775 28.4057 72.73 24.138 72.54C20.1893 72.36 18.0478 71.71 16.6202 71.16C14.8627 70.5163 13.2718 69.495 11.9627 68.17C10.6174 66.878 9.57991 65.3068 8.92519 63.57C8.37337 62.165 7.71019 60.045 7.533 56.145C7.34063 51.93 7.30013 50.665 7.30013 39.98C7.30013 29.295 7.34063 28.04 7.533 23.825C7.71525 19.925 8.37337 17.805 8.93025 16.395C9.66431 14.53 10.5452 13.195 11.9627 11.795C13.3802 10.395 14.7268 9.53 16.6202 8.805C18.0478 8.255 20.1893 7.605 24.138 7.425C27.8741 7.255 29.322 7.205 36.8702 7.2V7.21ZM62.1219 13.85C61.4837 13.85 60.8517 13.9742 60.2621 14.2154C59.6725 14.4566 59.1367 14.8102 58.6854 15.2559C58.2341 15.7016 57.8761 16.2308 57.6319 16.8131C57.3876 17.3955 57.2619 18.0197 57.2619 18.65C57.2619 19.2803 57.3876 19.9045 57.6319 20.4869C57.8761 21.0692 58.2341 21.5984 58.6854 22.0441C59.1367 22.4898 59.6725 22.8434 60.2621 23.0846C60.8517 23.3258 61.4837 23.45 62.1219 23.45C63.4109 23.45 64.647 22.9443 65.5585 22.0441C66.4699 21.1439 66.9819 19.923 66.9819 18.65C66.9819 17.377 66.4699 16.1561 65.5585 15.2559C64.647 14.3557 63.4109 13.85 62.1219 13.85ZM40.5051 19.46C37.7464 19.4175 35.0067 19.9174 32.4454 20.9307C29.8843 21.944 27.5527 23.4504 25.5866 25.3621C23.6205 27.2739 22.0592 29.5528 20.9934 32.0663C19.9276 34.5798 19.3787 37.2775 19.3787 40.0025C19.3787 42.7275 19.9276 45.4252 20.9934 47.9387C22.0592 50.4522 23.6205 52.7311 25.5866 54.6429C27.5527 56.5546 29.8843 58.061 32.4454 59.0743C35.0067 60.0876 37.7464 60.5875 40.5051 60.545C45.9652 60.4609 51.1728 58.2596 55.0039 54.4163C58.8351 50.5729 60.9824 45.3959 60.9824 40.0025C60.9824 34.6091 58.8351 29.4321 55.0039 25.5887C51.1728 21.7454 45.9652 19.5441 40.5051 19.46ZM40.5051 26.665C42.2781 26.665 44.0338 27.0099 45.6719 27.6801C47.31 28.3502 48.7985 29.3325 50.0522 30.5707C51.3059 31.809 52.3005 33.279 52.979 34.8969C53.6575 36.5148 54.0068 38.2488 54.0068 40C54.0068 41.7512 53.6575 43.4852 52.979 45.1031C52.3005 46.721 51.3059 48.191 50.0522 49.4293C48.7985 50.6675 47.31 51.6498 45.6719 52.3199C44.0338 52.9901 42.2781 53.335 40.5051 53.335C36.9242 53.335 33.49 51.9301 30.9579 49.4293C28.4259 46.9285 27.0034 43.5367 27.0034 40C27.0034 36.4633 28.4259 33.0715 30.9579 30.5707C33.49 28.0699 36.9242 26.665 40.5051 26.665Z" fill="white"/>
</g>
<defs>
<clipPath id="clip0_51_181">
<rect width="81" height="80" fill="white"/>
</clipPath>
</defs>
</svg>
