<svg width="42" height="55" viewBox="0 0 42 55" fill="none" xmlns="http://www.w3.org/2000/svg">
<path d="M35.4751 30.1928C33.6466 33.7795 31.169 37.3527 28.6355 40.5611C26.2296 43.5838 23.66 46.481 20.9375 49.2407C18.215 46.481 15.6454 43.5838 13.2395 40.5611C10.706 37.3527 8.22844 33.7795 6.3999 30.1928C4.55042 26.569 3.48958 23.1749 3.48958 20.2636C3.48958 15.7851 5.32784 11.49 8.59996 8.32318C11.8721 5.15637 16.31 3.37727 20.9375 3.37727C25.565 3.37727 30.0029 5.15637 33.275 8.32318C36.5472 11.49 38.3854 15.7851 38.3854 20.2636C38.3854 23.1749 37.3211 26.569 35.4751 30.1928ZM20.9375 54.0364C20.9375 54.0364 41.875 34.8332 41.875 20.2636C41.875 14.8894 39.6691 9.73526 35.7425 5.93508C31.816 2.13491 26.4905 0 20.9375 0C15.3845 0 10.059 2.13491 6.13245 5.93508C2.20591 9.73526 8.27457e-08 14.8894 0 20.2636C0 34.8332 20.9375 54.0364 20.9375 54.0364Z" fill="#D9D9D9"/>
<path d="M20.9375 27.0182C19.0865 27.0182 17.3113 26.3066 16.0025 25.0398C14.6936 23.7731 13.9583 22.0551 13.9583 20.2637C13.9583 18.4722 14.6936 16.7542 16.0025 15.4875C17.3113 14.2207 19.0865 13.5091 20.9375 13.5091C22.7885 13.5091 24.5637 14.2207 25.8725 15.4875C27.1814 16.7542 27.9167 18.4722 27.9167 20.2637C27.9167 22.0551 27.1814 23.7731 25.8725 25.0398C24.5637 26.3066 22.7885 27.0182 20.9375 27.0182ZM20.9375 30.3955C23.714 30.3955 26.3768 29.328 28.34 27.4279C30.3033 25.5279 31.4062 22.9508 31.4062 20.2637C31.4062 17.5765 30.3033 14.9995 28.34 13.0994C26.3768 11.1993 23.714 10.1318 20.9375 10.1318C18.161 10.1318 15.4982 11.1993 13.535 13.0994C11.5717 14.9995 10.4688 17.5765 10.4688 20.2637C10.4688 22.9508 11.5717 25.5279 13.535 27.4279C15.4982 29.328 18.161 30.3955 20.9375 30.3955Z" fill="#D9D9D9"/>
</svg>
