<svg width="54" height="52" viewBox="0 0 54 52" fill="none" xmlns="http://www.w3.org/2000/svg">
<g clip-path="url(#clip0_41_16)">
<path d="M39.6292 33.6182C42.8972 29.3239 44.3609 23.9998 43.7275 18.7109C43.0941 13.4221 40.4102 8.55856 36.2129 5.09338C32.0156 1.6282 26.6144 -0.183084 21.0898 0.0219039C15.5652 0.226892 10.3247 2.43303 6.41676 6.19895C2.50879 9.96488 0.221549 15.0129 0.0126303 20.333C-0.196288 25.6531 1.68852 30.853 5.28998 34.8923C8.89144 38.9317 13.9439 41.5127 19.4367 42.1189C24.9294 42.725 30.4573 41.3117 34.9144 38.1617H34.911C35.01 38.2917 35.1202 38.4163 35.2417 38.5355L48.2355 51.048C48.8683 51.6578 49.7268 52.0006 50.6221 52.0009C51.5174 52.0012 52.3761 51.659 53.0094 51.0496C53.6427 50.4402 53.9987 49.6135 53.999 48.7514C53.9993 47.8892 53.6439 47.0623 53.0111 46.4525L40.0174 33.94C39.8968 33.8223 39.767 33.7169 39.6292 33.6182ZM40.5 21.1252C40.5 23.4726 40.0198 25.797 39.087 27.9657C38.1541 30.1344 36.7868 32.1049 35.0631 33.7647C33.3395 35.4246 31.2931 36.7412 29.041 37.6396C26.7889 38.5379 24.3751 39.0002 21.9375 39.0002C19.4998 39.0002 17.086 38.5379 14.8339 37.6396C12.5818 36.7412 10.5355 35.4246 8.81181 33.7647C7.08812 32.1049 5.72082 30.1344 4.78796 27.9657C3.85511 25.797 3.37498 23.4726 3.37498 21.1252C3.37498 16.3845 5.33067 11.8379 8.81181 8.48567C12.293 5.13346 17.0144 3.2502 21.9375 3.25021C26.8606 3.2502 31.582 5.13346 35.0631 8.48567C38.5443 11.8379 40.5 16.3845 40.5 21.1252Z" fill="#BF8C36"/>
</g>
<defs>
<clipPath id="clip0_41_16">
<rect width="54" height="52" fill="white"/>
</clipPath>
</defs>
</svg>
