<svg width="180" height="180" viewBox="0 0 180 180" fill="none" xmlns="http://www.w3.org/2000/svg">
<path d="M2.45689e-08 39.375C2.45689e-08 34.8995 1.7779 30.6072 4.94257 27.4426C8.10725 24.2779 12.3995 22.5 16.875 22.5H118.125C122.601 22.5 126.893 24.2779 130.057 27.4426C133.222 30.6072 135 34.8995 135 39.375V56.25H146.475C149.003 56.2523 151.499 56.8226 153.777 57.9189C156.055 59.0152 158.058 60.6094 159.637 62.5837L176.299 83.3962C178.696 86.3908 180.001 90.1128 180 93.9487V118.125C180 122.601 178.222 126.893 175.057 130.057C171.893 133.222 167.601 135 163.125 135H157.5C157.5 140.967 155.129 146.69 150.91 150.91C146.69 155.129 140.967 157.5 135 157.5C129.033 157.5 123.31 155.129 119.09 150.91C114.871 146.69 112.5 140.967 112.5 135H56.25C56.2565 137.999 55.6633 140.969 54.5054 143.736C53.3475 146.502 51.6481 149.009 49.5073 151.11C47.3665 153.21 44.8274 154.861 42.0392 155.966C39.2511 157.071 36.2702 157.607 33.2718 157.543C30.2734 157.48 27.318 156.817 24.5793 155.595C21.8407 154.372 19.374 152.615 17.3244 150.425C15.2748 148.236 13.6836 145.659 12.6443 142.846C11.605 140.032 11.1386 137.04 11.2725 134.044C7.97679 132.884 5.12238 130.729 3.10325 127.878C1.08411 125.027 -0.00018846 121.619 2.45689e-08 118.125L2.45689e-08 39.375ZM14.5575 123.255C16.5937 119.928 19.4599 117.187 22.8749 115.302C26.29 113.416 30.1365 112.451 34.037 112.501C37.9376 112.551 41.7582 113.614 45.1238 115.586C48.4895 117.558 51.2847 120.372 53.235 123.75H115.515C117.49 120.33 120.33 117.49 123.75 115.515V39.375C123.75 37.8832 123.157 36.4524 122.102 35.3975C121.048 34.3426 119.617 33.75 118.125 33.75H16.875C15.3832 33.75 13.9524 34.3426 12.8975 35.3975C11.8426 36.4524 11.25 37.8832 11.25 39.375V118.125C11.2491 119.208 11.5607 120.268 12.1474 121.178C12.7341 122.088 13.571 122.809 14.5575 123.255ZM135 112.5C138.949 112.5 142.829 113.54 146.25 115.515C149.67 117.489 152.51 120.33 154.485 123.75H163.125C164.617 123.75 166.048 123.157 167.102 122.102C168.157 121.048 168.75 119.617 168.75 118.125V93.9375C168.748 92.661 168.311 91.4232 167.512 90.4275L150.863 69.615C150.336 68.9562 149.669 68.4241 148.91 68.058C148.15 67.6919 147.318 67.5012 146.475 67.5H135V112.5ZM33.75 123.75C30.7663 123.75 27.9048 124.935 25.795 127.045C23.6853 129.155 22.5 132.016 22.5 135C22.5 137.984 23.6853 140.845 25.795 142.955C27.9048 145.065 30.7663 146.25 33.75 146.25C36.7337 146.25 39.5952 145.065 41.705 142.955C43.8147 140.845 45 137.984 45 135C45 132.016 43.8147 129.155 41.705 127.045C39.5952 124.935 36.7337 123.75 33.75 123.75ZM135 123.75C132.016 123.75 129.155 124.935 127.045 127.045C124.935 129.155 123.75 132.016 123.75 135C123.75 137.984 124.935 140.845 127.045 142.955C129.155 145.065 132.016 146.25 135 146.25C137.984 146.25 140.845 145.065 142.955 142.955C145.065 140.845 146.25 137.984 146.25 135C146.25 132.016 145.065 129.155 142.955 127.045C140.845 124.935 137.984 123.75 135 123.75Z" fill="white"/>
</svg>
